<?xml version="1.0" encoding="UTF-8"?>
<svg version="1.1" xmlns="http://www.w3.org/2000/svg" width="284" height="284">
<path d="M0 0 C4.27586683 3.67923425 6.71763854 7.10839594 7.6875 12.6875 C8.04227036 17.69651954 6.58942693 21.27543446 3.6875 25.3125 C0.15108313 28.75823951 -3.35371367 31.2630954 -8.41796875 31.34765625 C-13.70717282 30.98441108 -17.20210068 29.84935522 -21.3125 26.3125 C-25.25240041 21.73369682 -26.73751709 17.29309767 -26.3125 11.3125 C-24.38594768 4.88688138 -20.79178031 1.34208018 -15.0625 -2 C-9.64861675 -3.35347081 -4.93070503 -2.5118686 0 0 Z " fill="#FFFFFF" transform="translate(151.3125,252.6875)"/>
<path d="M0 0 C4.27586683 3.67923425 6.71763854 7.10839594 7.6875 12.6875 C8.04227036 17.69651954 6.58942693 21.27543446 3.6875 25.3125 C0.15108313 28.75823951 -3.35371367 31.2630954 -8.41796875 31.34765625 C-13.70717282 30.98441108 -17.20210068 29.84935522 -21.3125 26.3125 C-24.91334056 22.03041933 -26.56501835 17.92051172 -26.3125 12.3125 C-25.11862569 6.10205767 -22.47196318 2.82093497 -17.3125 -0.6875 C-11.70780183 -4.02002324 -5.56853386 -2.83680027 0 0 Z " fill="#FFFFFF" transform="translate(151.3125,127.6875)"/>
<path d="M0 0 C4.27586683 3.67923425 6.71763854 7.10839594 7.6875 12.6875 C8.04227036 17.69651954 6.58942693 21.27543446 3.6875 25.3125 C0.15108313 28.75823951 -3.35371367 31.2630954 -8.41796875 31.34765625 C-13.70717282 30.98441108 -17.20210068 29.84935522 -21.3125 26.3125 C-24.91334056 22.03041933 -26.56501835 17.92051172 -26.3125 12.3125 C-25.11862569 6.10205767 -22.47196318 2.82093497 -17.3125 -0.6875 C-11.70780183 -4.02002324 -5.56853386 -2.83680027 0 0 Z " fill="#FFFFFF" transform="translate(151.3125,2.6875)"/>
<path d="M0 0 C4.69195095 4.03726012 7.29832587 7.9162358 7.78125 14.23046875 C7.58153457 18.66581562 6.28285281 22.50687146 3.32421875 25.85546875 C-0.23166209 28.98868675 -3.60668055 31.27226477 -8.4140625 31.34375 C-13.70528821 30.98982186 -17.2021177 29.84934059 -21.3125 26.3125 C-25.25240041 21.73369682 -26.73751709 17.29309767 -26.3125 11.3125 C-24.38594768 4.88688138 -20.79178031 1.34208018 -15.0625 -2 C-9.64861675 -3.35347081 -4.93070503 -2.5118686 0 0 Z " fill="#FFFFFF" transform="translate(26.3125,127.6875)"/>
<path d="M0 0 C4.69195095 4.03726012 7.29832587 7.9162358 7.78125 14.23046875 C7.58153457 18.66581562 6.28285281 22.50687146 3.32421875 25.85546875 C-0.23166209 28.98868675 -3.60668055 31.27226477 -8.4140625 31.34375 C-13.70528821 30.98982186 -17.2021177 29.84934059 -21.3125 26.3125 C-24.91334056 22.03041933 -26.56501835 17.92051172 -26.3125 12.3125 C-25.11862569 6.10205767 -22.47196318 2.82093497 -17.3125 -0.6875 C-11.70780183 -4.02002324 -5.56853386 -2.83680027 0 0 Z " fill="#FFFFFF" transform="translate(276.3125,127.6875)"/>
</svg>
